<svg width="101" height="171" viewBox="0 0 101 171" fill="none" xmlns="http://www.w3.org/2000/svg">
<path fill-rule="evenodd" clip-rule="evenodd" d="M43.3787 157.576L43.4225 181.684C43.4303 185.909 46.8744 189.329 51.1155 189.321C55.3563 189.313 58.788 185.881 58.7805 181.656L58.7365 157.548L92.5562 121.617C97.9086 115.93 100.881 108.422 100.867 100.626L100.742 31.7506C100.692 4.28436 78.3046 -17.9405 50.7385 -17.8904C23.1724 -17.8404 0.86624 4.46581 0.915973 31.9321L1.04129 100.808C1.05563 108.604 4.05548 116.101 9.42869 121.768L43.3787 157.576ZM43.3382 135.25L20.5927 111.26C17.9061 108.426 16.4063 104.678 16.399 100.78L16.274 31.9039C16.2393 12.889 31.6822 -2.55379 50.7664 -2.58847C69.8505 -2.62318 85.3494 12.7634 85.384 31.7783L85.426 54.8777C85.06 55.1332 84.7114 55.4238 84.3848 55.7504L58.5982 81.537L58.5159 36.2864C58.5083 32.0606 55.0641 28.6414 50.8232 28.6494C46.5822 28.6569 43.1503 32.0888 43.1583 36.3143L43.3382 135.25ZM58.6376 103.177L85.4651 76.3499L85.5093 100.654C85.5164 104.552 84.0303 108.306 81.3539 111.149L58.6959 135.222L58.6376 103.177Z" fill="#4B5765"/>
</svg>
